<svg width="152" height="223" viewBox="0 0 152 223" fill="none" xmlns="http://www.w3.org/2000/svg">
<path d="M84.3107 138.325C75.5888 160.811 71.6042 184.936 72.6185 209.04C72.6585 210.02 74.1818 210.023 74.1418 209.04C73.1348 185.06 77.1049 161.103 85.7795 138.73C86.1358 137.815 84.6634 137.418 84.3107 138.325Z" fill="#FD6198"/>
<path d="M65.3327 172.702C65.3327 172.702 68.3248 154.836 59.0212 136.711C59.0212 136.711 34.0552 141.171 34.746 141.152C35.4404 141.134 42.7699 167.682 65.3327 172.702Z" fill="#372640"/>
<path d="M150.934 78.6938C150.934 78.6938 145.596 89.7218 135.78 102.819C132.337 102.597 127.436 103.118 124.372 107.129C122.27 109.876 124.252 111.836 127.32 113.198C124.11 116.813 120.601 120.405 116.802 123.815C114.141 126.205 111.338 128.507 108.404 130.66C100.711 136.3 92.0979 140.909 82.6634 143.452C82.6634 143.452 75.1377 116.179 96.977 96.9025C97.7223 96.2467 98.8748 96.9134 98.6821 97.8934C97.5841 103.413 97.7513 108.568 102.805 107.129C108.298 105.562 110.305 97.2923 110.989 90.0606C111.127 88.6215 112.029 87.3682 113.356 86.8035C122.877 82.7377 135.151 79.7904 150.934 78.6938Z" fill="#FD6198"/>
<path d="M59.0211 136.715C57.6214 139.59 56.0471 142.479 54.3529 145.357C52.8151 147.969 51.179 150.567 49.4848 153.12C45.6819 158.844 41.5773 164.356 37.6217 169.343C36.4801 167.558 34.935 166.371 33.0153 167.471C30.365 168.986 30.7067 173.322 31.5029 176.812C23.6027 186.16 17.4584 192.35 17.4584 192.35C13.5683 183.614 11.536 175.57 10.7288 168.353C10.4598 165.988 10.3217 163.707 10.2962 161.525C10.2162 155.113 11.067 149.521 12.2704 144.861C17.7784 144.865 31.4084 144.501 26.2603 140.606C22.3411 137.644 17.4693 137.903 14.2881 138.544C16.6477 132.383 19.1817 129.014 19.1817 129.014C38.8142 122.011 59.0211 136.715 59.0211 136.715Z" fill="#FF9E5A"/>
<path d="M68.7284 111.067L69.9899 134.464C69.9899 134.464 43.0026 125.99 43.0935 110.043C43.1807 94.1009 68.7284 111.067 68.7284 111.067Z" fill="#372640"/>
<path d="M103.078 22.5452V22.5489C99.6349 24.4215 92.7744 28.9536 97.399 33.3145C99.2641 35.0741 100.795 35.3947 102.024 34.9976C100.733 45.275 98.2352 56.1864 93.5379 64.8936C80.8677 88.3921 75.3634 93.008 75.3634 93.008C75.3634 93.008 61.966 70.7773 69.5245 44.1894C69.739 43.4352 70.7861 43.3296 71.1315 44.0364C72.4148 46.674 74.3163 47.869 77.1157 45.1949C81.6821 40.8376 79.7116 32.9975 77.2684 27.2012C82.7692 18.6434 90.9675 10.0236 102.892 1.87744C102.896 1.88108 103.638 10.7304 103.078 22.5452Z" fill="#FF9E5A"/>
<path d="M60.7119 91.2735L39.0035 84.9525C1.93444 53.7304 19.6982 14.1836 19.6982 14.1836C23.2575 17.5681 26.5114 20.8798 29.489 24.1004C29.1799 30.8731 29.4017 45.3256 36.7239 46.8703C40.1487 47.5916 41.4212 45.0123 41.6393 41.3909C41.6902 40.5566 42.7518 40.2433 43.2353 40.921C65.0347 71.6513 60.7119 91.2735 60.7119 91.2735Z" fill="#FF9E5A"/>
<path d="M63.8676 104.903C63.8676 104.903 62.7842 70.5952 17.1133 52.0186C17.1133 52.0186 22.9339 92.2066 63.8676 104.903Z" fill="#372640"/>
<path d="M17.4585 106.724C17.4585 106.724 38.3489 123.257 68.7283 111.067L68.3175 100.527C68.3211 100.527 46.7254 93.6017 17.4585 106.724Z" fill="#FF9E5A"/>
<path d="M76.3849 121.188C76.3849 121.188 74.7961 113.453 73.5418 102.192C71.0296 79.6372 79.9733 57.319 97.3371 42.7499L102.071 38.7788C102.071 38.7788 93.8541 96.312 76.3849 121.188Z" fill="#372640"/>
<path d="M86.4808 168.141C86.4808 168.141 83.914 158.906 87.1861 149.86C87.1861 149.86 107.575 141.2 122.47 161.566C122.47 161.566 111.959 165.875 103.321 160.815C103.325 160.819 97.2641 169.803 86.4808 168.141Z" fill="#372640"/>
<path d="M58.505 161.762C63.5149 166.232 64.3693 173.668 65.5399 179.923C66.9688 187.552 68.0086 195.246 68.7066 202.977C68.7938 203.946 70.3172 203.957 70.2299 202.977C69.4883 194.78 68.3685 186.623 66.8233 178.535C65.6236 172.262 64.5983 165.157 59.5848 160.683C58.8504 160.028 57.7706 161.106 58.505 161.762Z" fill="#372640"/>
<path d="M87.772 159.922C84.2999 174.393 83.0311 189.276 84.0236 204.122C84.0891 205.098 85.6124 205.105 85.547 204.122C84.5617 189.403 85.7978 174.67 89.2408 160.327C89.4698 159.372 88.0046 158.964 87.772 159.922Z" fill="#372640"/>
<path d="M77.4612 106.054C73.2111 140.781 71.9496 175.825 73.6838 210.766C73.731 211.743 75.2544 211.75 75.2071 210.766C73.4693 175.825 74.7344 140.777 78.9845 106.054C79.1045 105.081 77.5775 105.089 77.4612 106.054Z" fill="#372640"/>
<path d="M66.4267 126.612C76.8647 150.515 79.6932 176.692 82.3764 202.383C82.4781 203.349 84.0015 203.36 83.8997 202.383C81.1839 176.404 78.2935 150.013 67.7392 125.844C67.3502 124.944 66.0377 125.72 66.4267 126.612Z" fill="#372640"/>
<path d="M18.062 191.997C18.84 180.666 21.8104 169.671 25.9223 159.124C27.9982 153.798 30.3577 148.588 32.8445 143.444C35.2986 138.365 37.56 132.558 41.3665 128.325C42.0209 127.596 40.9484 126.514 40.2903 127.246C36.5747 131.381 34.3642 136.857 31.9538 141.804C29.3943 147.062 26.9657 152.384 24.8098 157.82C20.4652 168.775 17.3531 180.204 16.5423 191.997C16.4732 192.977 17.9966 192.973 18.062 191.997Z" fill="white"/>
<path d="M109.088 112.444C121.732 99.8531 135.25 87.9181 151.167 79.6407C152.036 79.189 151.268 77.8701 150.4 78.3219C134.374 86.6539 120.744 98.6873 108.011 111.362C107.313 112.058 108.393 113.136 109.088 112.444Z" fill="white"/>
<path d="M18.8763 14.5882C20.7959 27.6053 23.1409 41.096 31.2011 51.8798C31.7828 52.6558 33.1062 51.898 32.5172 51.1111C24.5297 40.4257 22.2466 27.0771 20.3451 14.1839C20.2033 13.2111 18.7345 13.6228 18.8763 14.5882Z" fill="white"/>
<path d="M89.9493 39.6825C92.2215 26.0643 96.9661 13.0399 103.943 1.13763C104.441 0.288768 103.125 -0.479938 102.627 0.368923C95.5881 12.3805 90.7745 25.5397 88.4804 39.2781C88.3205 40.2399 89.7857 40.6516 89.9493 39.6825Z" fill="white"/>
<path d="M85.7973 222.92H64.7251L52.313 191.399H98.2094L85.7973 222.92Z" fill="#55A9FF"/>
<path d="M54.1099 194.883L54.0952 196.92L96.3232 197.225L96.3378 195.188L54.1099 194.883Z" fill="white"/>
<path d="M56.1523 200.081L56.1377 202.118L94.2902 202.392L94.3048 200.356L56.1523 200.081Z" fill="white"/>
<path d="M120.936 76.1983C120.936 76.1983 126.451 72.0524 123.234 64.3799C123.234 64.3762 115.573 68.9812 120.936 76.1983Z" fill="#FD6198"/>
<path d="M127.942 67.7715C127.942 67.7715 134.137 67.9537 135.304 61.0316C135.304 61.028 127.244 60.0006 127.942 67.7715Z" fill="#FD6198"/>
<path d="M20.9085 120.153C20.9085 120.153 16.2258 115.086 8.93994 119.086C8.93994 119.086 14.3025 126.244 20.9085 120.153Z" fill="#FF9E5A"/>
<path d="M9.25636 39.6789C9.25636 39.6789 8.26383 32.8442 0 31.999C0 32.0027 0.367197 40.9431 9.25636 39.6789Z" fill="#FF9E5A"/>
<path d="M7.23513 30.2614C7.23513 30.2614 10.5617 24.2137 4.48294 18.5376C4.48294 18.5412 -0.610596 25.8932 7.23513 30.2614Z" fill="#FF9E5A"/>
<path d="M11.8197 114.04C11.8197 114.04 11.358 107.847 4.36663 107.398C4.36663 107.402 4.17758 115.541 11.8197 114.04Z" fill="#FF9E5A"/>
<path d="M116.802 123.811C114.141 126.201 111.338 128.503 108.404 130.657C106.23 129.72 104.707 127.553 104.707 125.035C104.707 121.651 107.444 118.915 110.814 118.915C113.777 118.911 116.239 121.013 116.802 123.811Z" fill="#FF9E5A"/>
<path d="M100.936 131.152C101.826 131.152 102.547 130.43 102.547 129.538C102.547 128.647 101.826 127.924 100.936 127.924C100.047 127.924 99.3257 128.647 99.3257 129.538C99.3257 130.43 100.047 131.152 100.936 131.152Z" fill="#FF9E5A"/>
<path d="M121.332 89.2079C121.332 90.0531 120.649 90.738 119.805 90.738C118.962 90.738 118.278 90.0531 118.278 89.2079C118.278 88.3627 118.962 87.6777 119.805 87.6777C120.649 87.6741 121.332 88.3627 121.332 89.2079Z" fill="#FF9E5A"/>
<path d="M54.3564 145.357C52.8186 147.969 51.1825 150.566 49.4883 153.12C49.2847 153.142 49.0811 153.149 48.8739 153.149C45.66 153.149 43.0532 150.541 43.0532 147.317C43.0532 144.096 45.6563 141.484 48.8739 141.484C51.4007 141.488 53.5493 143.101 54.3564 145.357Z" fill="#FD6198"/>
<path d="M40.4537 153.15C41.4857 153.15 42.3224 152.311 42.3224 151.277C42.3224 150.243 41.4857 149.404 40.4537 149.404C39.4216 149.404 38.585 150.243 38.585 151.277C38.585 152.311 39.4216 153.15 40.4537 153.15Z" fill="#FD6198"/>
<path d="M13.8484 164.946C13.8484 166.739 12.4778 168.207 10.729 168.356C10.46 165.992 10.3218 163.711 10.2964 161.529C10.3436 161.525 10.3836 161.525 10.4273 161.525C12.3214 161.522 13.8484 163.052 13.8484 164.946Z" fill="#FD6198"/>
<path d="M17.4181 192.405C4.21718 171.591 11.4666 144.923 11.5393 144.657L13.0045 145.069C12.9318 145.331 5.87139 171.358 18.7015 191.585L17.4181 192.405Z" fill="#372640"/>
<path d="M113.734 87.4664L112.989 86.1367C113.461 85.8707 124.841 79.608 150.338 77.5605L150.461 79.0834C125.295 81.1018 113.847 87.4045 113.734 87.4664Z" fill="#372640"/>
<path d="M20.912 13.642L19.793 14.6777L28.9373 24.5987L30.0564 23.563L20.912 13.642Z" fill="#372640"/>
</svg>
